<svg width="171" height="120" xmlns="http://www.w3.org/2000/svg" xmlns:xlink="http://www.w3.org/1999/xlink" overflow="hidden"><defs><clipPath id="clip0"><path d="M56 255 227 255 227 375 56 375Z" fill-rule="evenodd" clip-rule="evenodd"/></clipPath></defs><g clip-path="url(#clip0)" transform="translate(-56 -255)"><rect x="58.5001" y="259.5" width="56" height="34" stroke="#000066" stroke-width="3" stroke-miterlimit="8" fill="#FFFFFF"/><rect x="58.5001" y="338.5" width="56" height="34" stroke="#000066" stroke-width="3" stroke-miterlimit="8" fill="#FFFFFF"/><rect x="114.5" y="298.5" width="56" height="34" stroke="#000066" stroke-width="3" stroke-miterlimit="8" fill="#FFFFFF"/><rect x="169.5" y="258.5" width="56" height="34" stroke="#000066" stroke-width="3" stroke-miterlimit="8" fill="#FFFFFF"/><rect x="169.5" y="338.5" width="56" height="34" stroke="#000066" stroke-width="3" stroke-miterlimit="8" fill="#FFFFFF"/><path d="M114 315.41C100 315.41 86 304.205 86 293" stroke="#000066" stroke-width="4" stroke-miterlimit="8" fill="none" fill-rule="evenodd"/><path d="M196.5 292C196.5 303.95 183.25 315.9 170 315.9" stroke="#000066" stroke-width="4" stroke-miterlimit="8" fill="none" fill-rule="evenodd"/><path d="M0 0C14.0001 0 28.0001 11.4552 28.0001 22.9103" stroke="#000066" stroke-width="4" stroke-miterlimit="8" fill="none" fill-rule="evenodd" transform="matrix(-1 -8.74228e-08 -8.74228e-08 1 114 315)"/><path d="M0 0C11.2051 0 22.4103 13.25 22.4103 26.5001" stroke="#000066" stroke-width="4" stroke-miterlimit="8" fill="none" fill-rule="evenodd" transform="matrix(-4.37114e-08 -1 -1 4.37114e-08 196.5 337.41)"/></g></svg>